<mxfile host="app.diagrams.net" modified="2021-03-03T14:34:40.600Z" agent="5.0 (Windows NT 6.1; WOW64) AppleWebKit/537.36 (KHTML, like Gecko) Chrome/86.0.4240.198 Safari/537.36" etag="T3_FtMbWtthfR0TeXdyl" version="14.4.3" type="github">
  <diagram id="JHaTWVX0i-lWZitRwSfC" name="Page-1">
    <mxGraphModel dx="1185" dy="1783" grid="1" gridSize="10" guides="1" tooltips="1" connect="1" arrows="1" fold="1" page="1" pageScale="1" pageWidth="827" pageHeight="1169" math="0" shadow="0">
      <root>
        <mxCell id="0" />
        <mxCell id="1" parent="0" />
        <mxCell id="ALFkqxRXxDszs7MNfKY9-43" value="" style="rounded=0;whiteSpace=wrap;html=1;" vertex="1" parent="1">
          <mxGeometry x="70" y="100" width="220" height="270" as="geometry" />
        </mxCell>
        <mxCell id="fmQV6IIz-ANYhuj0cnn7-2" value="客户信息表" style="shape=table;startSize=30;container=1;collapsible=1;childLayout=tableLayout;fixedRows=1;rowLines=0;fontStyle=1;align=center;resizeLast=1;" parent="1" vertex="1">
          <mxGeometry x="60" y="590" width="180" height="190" as="geometry" />
        </mxCell>
        <mxCell id="fmQV6IIz-ANYhuj0cnn7-3" value="" style="shape=partialRectangle;collapsible=0;dropTarget=0;pointerEvents=0;fillColor=none;top=0;left=0;bottom=1;right=0;points=[[0,0.5],[1,0.5]];portConstraint=eastwest;" parent="fmQV6IIz-ANYhuj0cnn7-2" vertex="1">
          <mxGeometry y="30" width="180" height="30" as="geometry" />
        </mxCell>
        <mxCell id="fmQV6IIz-ANYhuj0cnn7-4" value="PK" style="shape=partialRectangle;connectable=0;fillColor=none;top=0;left=0;bottom=0;right=0;fontStyle=1;overflow=hidden;" parent="fmQV6IIz-ANYhuj0cnn7-3" vertex="1">
          <mxGeometry width="30" height="30" as="geometry" />
        </mxCell>
        <mxCell id="fmQV6IIz-ANYhuj0cnn7-5" value="ID" style="shape=partialRectangle;connectable=0;fillColor=none;top=0;left=0;bottom=0;right=0;align=left;spacingLeft=6;fontStyle=5;overflow=hidden;" parent="fmQV6IIz-ANYhuj0cnn7-3" vertex="1">
          <mxGeometry x="30" width="150" height="30" as="geometry" />
        </mxCell>
        <mxCell id="fmQV6IIz-ANYhuj0cnn7-6" value="" style="shape=partialRectangle;collapsible=0;dropTarget=0;pointerEvents=0;fillColor=none;top=0;left=0;bottom=0;right=0;points=[[0,0.5],[1,0.5]];portConstraint=eastwest;" parent="fmQV6IIz-ANYhuj0cnn7-2" vertex="1">
          <mxGeometry y="60" width="180" height="30" as="geometry" />
        </mxCell>
        <mxCell id="fmQV6IIz-ANYhuj0cnn7-7" value="" style="shape=partialRectangle;connectable=0;fillColor=none;top=0;left=0;bottom=0;right=0;editable=1;overflow=hidden;" parent="fmQV6IIz-ANYhuj0cnn7-6" vertex="1">
          <mxGeometry width="30" height="30" as="geometry" />
        </mxCell>
        <mxCell id="fmQV6IIz-ANYhuj0cnn7-8" value="用户名 username" style="shape=partialRectangle;connectable=0;fillColor=none;top=0;left=0;bottom=0;right=0;align=left;spacingLeft=6;overflow=hidden;" parent="fmQV6IIz-ANYhuj0cnn7-6" vertex="1">
          <mxGeometry x="30" width="150" height="30" as="geometry" />
        </mxCell>
        <mxCell id="fmQV6IIz-ANYhuj0cnn7-9" value="" style="shape=partialRectangle;collapsible=0;dropTarget=0;pointerEvents=0;fillColor=none;top=0;left=0;bottom=0;right=0;points=[[0,0.5],[1,0.5]];portConstraint=eastwest;" parent="fmQV6IIz-ANYhuj0cnn7-2" vertex="1">
          <mxGeometry y="90" width="180" height="30" as="geometry" />
        </mxCell>
        <mxCell id="fmQV6IIz-ANYhuj0cnn7-10" value="" style="shape=partialRectangle;connectable=0;fillColor=none;top=0;left=0;bottom=0;right=0;editable=1;overflow=hidden;" parent="fmQV6IIz-ANYhuj0cnn7-9" vertex="1">
          <mxGeometry width="30" height="30" as="geometry" />
        </mxCell>
        <mxCell id="fmQV6IIz-ANYhuj0cnn7-11" value="手机号码 tel" style="shape=partialRectangle;connectable=0;fillColor=none;top=0;left=0;bottom=0;right=0;align=left;spacingLeft=6;overflow=hidden;" parent="fmQV6IIz-ANYhuj0cnn7-9" vertex="1">
          <mxGeometry x="30" width="150" height="30" as="geometry" />
        </mxCell>
        <mxCell id="fmQV6IIz-ANYhuj0cnn7-12" value="" style="shape=partialRectangle;collapsible=0;dropTarget=0;pointerEvents=0;fillColor=none;top=0;left=0;bottom=0;right=0;points=[[0,0.5],[1,0.5]];portConstraint=eastwest;" parent="fmQV6IIz-ANYhuj0cnn7-2" vertex="1">
          <mxGeometry y="120" width="180" height="30" as="geometry" />
        </mxCell>
        <mxCell id="fmQV6IIz-ANYhuj0cnn7-13" value="" style="shape=partialRectangle;connectable=0;fillColor=none;top=0;left=0;bottom=0;right=0;editable=1;overflow=hidden;" parent="fmQV6IIz-ANYhuj0cnn7-12" vertex="1">
          <mxGeometry width="30" height="30" as="geometry" />
        </mxCell>
        <mxCell id="fmQV6IIz-ANYhuj0cnn7-14" value="微信 openID" style="shape=partialRectangle;connectable=0;fillColor=none;top=0;left=0;bottom=0;right=0;align=left;spacingLeft=6;overflow=hidden;" parent="fmQV6IIz-ANYhuj0cnn7-12" vertex="1">
          <mxGeometry x="30" width="150" height="30" as="geometry" />
        </mxCell>
        <mxCell id="ALFkqxRXxDszs7MNfKY9-1" value="" style="shape=partialRectangle;collapsible=0;dropTarget=0;pointerEvents=0;fillColor=none;top=0;left=0;bottom=0;right=0;points=[[0,0.5],[1,0.5]];portConstraint=eastwest;" vertex="1" parent="fmQV6IIz-ANYhuj0cnn7-2">
          <mxGeometry y="150" width="180" height="30" as="geometry" />
        </mxCell>
        <mxCell id="ALFkqxRXxDszs7MNfKY9-2" value="" style="shape=partialRectangle;connectable=0;fillColor=none;top=0;left=0;bottom=0;right=0;editable=1;overflow=hidden;" vertex="1" parent="ALFkqxRXxDszs7MNfKY9-1">
          <mxGeometry width="30" height="30" as="geometry" />
        </mxCell>
        <mxCell id="ALFkqxRXxDszs7MNfKY9-3" value="其他信息。。。" style="shape=partialRectangle;connectable=0;fillColor=none;top=0;left=0;bottom=0;right=0;align=left;spacingLeft=6;overflow=hidden;" vertex="1" parent="ALFkqxRXxDszs7MNfKY9-1">
          <mxGeometry x="30" width="150" height="30" as="geometry" />
        </mxCell>
        <mxCell id="fmQV6IIz-ANYhuj0cnn7-15" value="&lt;div style=&quot;resize: none ; outline: 0px ; font-size: 13px ; color: rgb(50 , 50 , 50)&quot;&gt;&lt;font style=&quot;vertical-align: inherit&quot;&gt;&lt;font style=&quot;vertical-align: inherit&quot;&gt;Http服务接口&lt;/font&gt;&lt;/font&gt;&lt;/div&gt;&lt;span style=&quot;color: rgb(50 , 50 , 50) ; font-size: 13px ; background-color: rgba(255 , 255 , 255 , 0.01)&quot;&gt;&lt;font style=&quot;vertical-align: inherit&quot;&gt;&lt;font style=&quot;vertical-align: inherit&quot;&gt;REST API&lt;/font&gt;&lt;/font&gt;&lt;/span&gt;" style="rounded=1;whiteSpace=wrap;html=1;" parent="1" vertex="1">
          <mxGeometry x="85" y="160" width="190" height="60" as="geometry" />
        </mxCell>
        <mxCell id="fmQV6IIz-ANYhuj0cnn7-16" value="&lt;div style=&quot;resize: none ; outline: 0px ; font-size: 13px ; color: rgb(50 , 50 , 50)&quot;&gt;&lt;span style=&quot;background-color: rgba(255 , 255 , 255 , 0.01)&quot;&gt;&lt;font style=&quot;vertical-align: inherit&quot;&gt;&lt;font style=&quot;vertical-align: inherit&quot;&gt;权限验证&lt;/font&gt;&lt;/font&gt;&lt;/span&gt;&lt;div style=&quot;resize: none ; outline: 0px&quot;&gt;Spring Security&lt;/div&gt;&lt;/div&gt;" style="rounded=1;whiteSpace=wrap;html=1;" parent="1" vertex="1">
          <mxGeometry x="85" y="230" width="190" height="60" as="geometry" />
        </mxCell>
        <mxCell id="fmQV6IIz-ANYhuj0cnn7-17" value="&lt;div style=&quot;resize: none ; outline: 0px ; font-size: 13px ; color: rgb(50 , 50 , 50)&quot;&gt;&lt;span style=&quot;background-color: rgba(255 , 255 , 255 , 0.01)&quot;&gt;数据存取&lt;/span&gt;&lt;br&gt;&lt;div style=&quot;resize: none ; outline: 0px&quot;&gt;MyBatis&lt;/div&gt;&lt;/div&gt;" style="rounded=1;whiteSpace=wrap;html=1;" parent="1" vertex="1">
          <mxGeometry x="85" y="300" width="190" height="60" as="geometry" />
        </mxCell>
        <mxCell id="ALFkqxRXxDszs7MNfKY9-4" value="客户A-2021-数据表" style="shape=table;startSize=30;container=1;collapsible=1;childLayout=tableLayout;fixedRows=1;rowLines=0;fontStyle=1;align=center;resizeLast=1;" vertex="1" parent="1">
          <mxGeometry x="290" y="590" width="300" height="190" as="geometry" />
        </mxCell>
        <mxCell id="ALFkqxRXxDszs7MNfKY9-5" value="" style="shape=partialRectangle;collapsible=0;dropTarget=0;pointerEvents=0;fillColor=none;top=0;left=0;bottom=1;right=0;points=[[0,0.5],[1,0.5]];portConstraint=eastwest;" vertex="1" parent="ALFkqxRXxDszs7MNfKY9-4">
          <mxGeometry y="30" width="300" height="30" as="geometry" />
        </mxCell>
        <mxCell id="ALFkqxRXxDszs7MNfKY9-6" value="PK" style="shape=partialRectangle;connectable=0;fillColor=none;top=0;left=0;bottom=0;right=0;fontStyle=1;overflow=hidden;" vertex="1" parent="ALFkqxRXxDszs7MNfKY9-5">
          <mxGeometry width="30" height="30" as="geometry" />
        </mxCell>
        <mxCell id="ALFkqxRXxDszs7MNfKY9-7" value="时间戳" style="shape=partialRectangle;connectable=0;fillColor=none;top=0;left=0;bottom=0;right=0;align=left;spacingLeft=6;fontStyle=5;overflow=hidden;" vertex="1" parent="ALFkqxRXxDszs7MNfKY9-5">
          <mxGeometry x="30" width="270" height="30" as="geometry" />
        </mxCell>
        <mxCell id="ALFkqxRXxDszs7MNfKY9-8" value="" style="shape=partialRectangle;collapsible=0;dropTarget=0;pointerEvents=0;fillColor=none;top=0;left=0;bottom=0;right=0;points=[[0,0.5],[1,0.5]];portConstraint=eastwest;" vertex="1" parent="ALFkqxRXxDszs7MNfKY9-4">
          <mxGeometry y="60" width="300" height="30" as="geometry" />
        </mxCell>
        <mxCell id="ALFkqxRXxDszs7MNfKY9-9" value="" style="shape=partialRectangle;connectable=0;fillColor=none;top=0;left=0;bottom=0;right=0;editable=1;overflow=hidden;" vertex="1" parent="ALFkqxRXxDszs7MNfKY9-8">
          <mxGeometry width="30" height="30" as="geometry" />
        </mxCell>
        <mxCell id="ALFkqxRXxDszs7MNfKY9-10" value="当前温度" style="shape=partialRectangle;connectable=0;fillColor=none;top=0;left=0;bottom=0;right=0;align=left;spacingLeft=6;overflow=hidden;" vertex="1" parent="ALFkqxRXxDszs7MNfKY9-8">
          <mxGeometry x="30" width="270" height="30" as="geometry" />
        </mxCell>
        <mxCell id="ALFkqxRXxDszs7MNfKY9-11" value="" style="shape=partialRectangle;collapsible=0;dropTarget=0;pointerEvents=0;fillColor=none;top=0;left=0;bottom=0;right=0;points=[[0,0.5],[1,0.5]];portConstraint=eastwest;" vertex="1" parent="ALFkqxRXxDszs7MNfKY9-4">
          <mxGeometry y="90" width="300" height="30" as="geometry" />
        </mxCell>
        <mxCell id="ALFkqxRXxDszs7MNfKY9-12" value="" style="shape=partialRectangle;connectable=0;fillColor=none;top=0;left=0;bottom=0;right=0;editable=1;overflow=hidden;" vertex="1" parent="ALFkqxRXxDszs7MNfKY9-11">
          <mxGeometry width="30" height="30" as="geometry" />
        </mxCell>
        <mxCell id="ALFkqxRXxDszs7MNfKY9-13" value="温度阈值" style="shape=partialRectangle;connectable=0;fillColor=none;top=0;left=0;bottom=0;right=0;align=left;spacingLeft=6;overflow=hidden;" vertex="1" parent="ALFkqxRXxDszs7MNfKY9-11">
          <mxGeometry x="30" width="270" height="30" as="geometry" />
        </mxCell>
        <mxCell id="ALFkqxRXxDszs7MNfKY9-14" value="" style="shape=partialRectangle;collapsible=0;dropTarget=0;pointerEvents=0;fillColor=none;top=0;left=0;bottom=0;right=0;points=[[0,0.5],[1,0.5]];portConstraint=eastwest;" vertex="1" parent="ALFkqxRXxDszs7MNfKY9-4">
          <mxGeometry y="120" width="300" height="30" as="geometry" />
        </mxCell>
        <mxCell id="ALFkqxRXxDszs7MNfKY9-15" value="" style="shape=partialRectangle;connectable=0;fillColor=none;top=0;left=0;bottom=0;right=0;editable=1;overflow=hidden;" vertex="1" parent="ALFkqxRXxDszs7MNfKY9-14">
          <mxGeometry width="30" height="30" as="geometry" />
        </mxCell>
        <mxCell id="ALFkqxRXxDszs7MNfKY9-16" value="是否异常" style="shape=partialRectangle;connectable=0;fillColor=none;top=0;left=0;bottom=0;right=0;align=left;spacingLeft=6;overflow=hidden;" vertex="1" parent="ALFkqxRXxDszs7MNfKY9-14">
          <mxGeometry x="30" width="270" height="30" as="geometry" />
        </mxCell>
        <mxCell id="ALFkqxRXxDszs7MNfKY9-17" value="" style="shape=partialRectangle;collapsible=0;dropTarget=0;pointerEvents=0;fillColor=none;top=0;left=0;bottom=0;right=0;points=[[0,0.5],[1,0.5]];portConstraint=eastwest;" vertex="1" parent="ALFkqxRXxDszs7MNfKY9-4">
          <mxGeometry y="150" width="300" height="30" as="geometry" />
        </mxCell>
        <mxCell id="ALFkqxRXxDszs7MNfKY9-18" value="" style="shape=partialRectangle;connectable=0;fillColor=none;top=0;left=0;bottom=0;right=0;editable=1;overflow=hidden;" vertex="1" parent="ALFkqxRXxDszs7MNfKY9-17">
          <mxGeometry width="30" height="30" as="geometry" />
        </mxCell>
        <mxCell id="ALFkqxRXxDszs7MNfKY9-19" value="异常代码：1. 温度过低  2. 温度过高 3. ……" style="shape=partialRectangle;connectable=0;fillColor=none;top=0;left=0;bottom=0;right=0;align=left;spacingLeft=6;overflow=hidden;" vertex="1" parent="ALFkqxRXxDszs7MNfKY9-17">
          <mxGeometry x="30" width="270" height="30" as="geometry" />
        </mxCell>
        <mxCell id="ALFkqxRXxDszs7MNfKY9-36" value="&lt;b&gt;客户A-2020-数据表&lt;/b&gt;&lt;br&gt;……" style="html=1;" vertex="1" parent="1">
          <mxGeometry x="290" y="810" width="300" height="40" as="geometry" />
        </mxCell>
        <mxCell id="ALFkqxRXxDszs7MNfKY9-37" value="&lt;b&gt;客户B-2021-数据表&lt;/b&gt;&lt;br&gt;……" style="html=1;" vertex="1" parent="1">
          <mxGeometry x="290" y="870" width="300" height="40" as="geometry" />
        </mxCell>
        <mxCell id="ALFkqxRXxDszs7MNfKY9-38" value="&lt;b&gt;客户B-2020-数据表&lt;/b&gt;&lt;br&gt;……" style="html=1;" vertex="1" parent="1">
          <mxGeometry x="290" y="920" width="300" height="40" as="geometry" />
        </mxCell>
        <mxCell id="ALFkqxRXxDszs7MNfKY9-40" value="&lt;div style=&quot;resize: none ; outline: 0px ; font-size: 13px ; color: rgb(50 , 50 , 50)&quot;&gt;&lt;/div&gt;&lt;font style=&quot;vertical-align: inherit&quot;&gt;&lt;font style=&quot;vertical-align: inherit&quot;&gt;&lt;span style=&quot;color: rgb(50 , 50 , 50) ; background-color: rgb(248 , 249 , 250)&quot;&gt;&lt;b&gt;&lt;font style=&quot;font-size: 16px&quot;&gt;PC端管理系统&lt;/font&gt;&lt;/b&gt;&lt;/span&gt;&lt;br&gt;&lt;span style=&quot;background-color: rgba(255 , 255 , 255 , 0.01)&quot;&gt;&lt;font color=&quot;#323232&quot;&gt;&lt;span style=&quot;font-size: 13px&quot;&gt;基础框架[Vue+&lt;a href=&quot;https://element.faas.ele.me/#/zh-CN&quot;&gt;Element-ui&lt;/a&gt;] + 统计图表UI库[ECharts&amp;nbsp;&lt;a href=&quot;data:page/id,JHaTWVX0i-lWZitRwSfC&quot;&gt;demo&lt;/a&gt;]&lt;/span&gt;&lt;/font&gt;&lt;br&gt;&lt;/span&gt;&lt;/font&gt;&lt;/font&gt;" style="rounded=1;whiteSpace=wrap;html=1;" vertex="1" parent="1">
          <mxGeometry x="340" y="100" width="420" height="60" as="geometry" />
        </mxCell>
        <mxCell id="ALFkqxRXxDszs7MNfKY9-41" value="&lt;div style=&quot;resize: none ; outline: 0px ; font-size: 13px ; color: rgb(50 , 50 , 50)&quot;&gt;&lt;/div&gt;&lt;font style=&quot;vertical-align: inherit&quot;&gt;&lt;font style=&quot;vertical-align: inherit&quot;&gt;&lt;font color=&quot;#323232&quot;&gt;&lt;span style=&quot;font-size: 16px&quot;&gt;&lt;b&gt;微信端&lt;/b&gt;&lt;/span&gt;&lt;/font&gt;&lt;br&gt;&lt;span style=&quot;background-color: rgba(255 , 255 , 255 , 0.01)&quot;&gt;&lt;font color=&quot;#323232&quot;&gt;&lt;span style=&quot;font-size: 13px&quot;&gt;基础框架[Vue+&lt;a href=&quot;https://vant-contrib.gitee.io/vant-weapp/#/intro&quot;&gt;Vant&lt;/a&gt;]&lt;/span&gt;&lt;/font&gt;&lt;br&gt;&lt;/span&gt;&lt;/font&gt;&lt;/font&gt;" style="rounded=1;whiteSpace=wrap;html=1;" vertex="1" parent="1">
          <mxGeometry x="340" y="310" width="420" height="60" as="geometry" />
        </mxCell>
        <mxCell id="ALFkqxRXxDszs7MNfKY9-44" value="&amp;nbsp;后台服务&lt;br&gt;&lt;span style=&quot;font-weight: normal&quot;&gt;&lt;font style=&quot;font-size: 12px&quot;&gt;SpringBoot&lt;/font&gt;&lt;/span&gt;" style="text;html=1;strokeColor=none;fillColor=none;align=center;verticalAlign=middle;whiteSpace=wrap;rounded=0;fontSize=16;fontStyle=1" vertex="1" parent="1">
          <mxGeometry x="70" y="120" width="110" height="20" as="geometry" />
        </mxCell>
        <mxCell id="ALFkqxRXxDszs7MNfKY9-46" value="&lt;h1&gt;数据库设计&lt;/h1&gt;&lt;p&gt;客户数据表数据量庞大，将数据分表存储，按照客户编号和年费作维度进行分表。（注：在成本允许的情况下，建议使用大数据引擎进行存储和分析 Hadoop）&lt;/p&gt;" style="text;html=1;strokeColor=none;fillColor=none;spacing=5;spacingTop=-20;whiteSpace=wrap;overflow=hidden;rounded=0;fontSize=16;" vertex="1" parent="1">
          <mxGeometry x="60" y="440" width="730" height="120" as="geometry" />
        </mxCell>
        <mxCell id="ALFkqxRXxDszs7MNfKY9-47" value="&lt;h1&gt;技术选型&lt;/h1&gt;&lt;p&gt;前期采用SpringBoot作为后台服务端框架，配置少，开发速度快，后期业务量上来后，进行微服务和分布式改造也较为方便， 微服务方案使用 Spring Cloud&lt;/p&gt;" style="text;html=1;strokeColor=none;fillColor=none;spacing=5;spacingTop=-20;whiteSpace=wrap;overflow=hidden;rounded=0;fontSize=16;" vertex="1" parent="1">
          <mxGeometry x="60" y="-40" width="730" height="120" as="geometry" />
        </mxCell>
        <mxCell id="ALFkqxRXxDszs7MNfKY9-48" value="&lt;h1&gt;告警流程&lt;/h1&gt;&lt;p&gt;硬件控制器采集并上报数据（使用Http协议通信），后台进行告警判断，需要告警则向用户推送消息。&lt;/p&gt;" style="text;html=1;strokeColor=none;fillColor=none;spacing=5;spacingTop=-20;whiteSpace=wrap;overflow=hidden;rounded=0;fontSize=16;" vertex="1" parent="1">
          <mxGeometry x="40" y="980" width="730" height="120" as="geometry" />
        </mxCell>
        <mxCell id="ALFkqxRXxDszs7MNfKY9-83" style="edgeStyle=orthogonalEdgeStyle;rounded=0;orthogonalLoop=1;jettySize=auto;html=1;exitX=0.5;exitY=1;exitDx=0;exitDy=0;fontSize=12;" edge="1" parent="1" target="ALFkqxRXxDszs7MNfKY9-81">
          <mxGeometry relative="1" as="geometry">
            <mxPoint x="380" y="1220" as="sourcePoint" />
          </mxGeometry>
        </mxCell>
        <mxCell id="ALFkqxRXxDszs7MNfKY9-87" value="" style="edgeStyle=orthogonalEdgeStyle;rounded=0;orthogonalLoop=1;jettySize=auto;html=1;fontSize=12;" edge="1" parent="1" source="ALFkqxRXxDszs7MNfKY9-81" target="ALFkqxRXxDszs7MNfKY9-86">
          <mxGeometry relative="1" as="geometry" />
        </mxCell>
        <mxCell id="ALFkqxRXxDszs7MNfKY9-81" value="硬件控制器采集并提交数据" style="rounded=0;whiteSpace=wrap;html=1;fontSize=12;" vertex="1" parent="1">
          <mxGeometry x="330" y="1260" width="100" height="51" as="geometry" />
        </mxCell>
        <mxCell id="ALFkqxRXxDszs7MNfKY9-89" value="" style="edgeStyle=orthogonalEdgeStyle;rounded=0;orthogonalLoop=1;jettySize=auto;html=1;fontSize=12;" edge="1" parent="1" source="ALFkqxRXxDszs7MNfKY9-86" target="ALFkqxRXxDszs7MNfKY9-88">
          <mxGeometry relative="1" as="geometry" />
        </mxCell>
        <mxCell id="ALFkqxRXxDszs7MNfKY9-86" value="后台服务接受数据" style="rounded=0;whiteSpace=wrap;html=1;fontSize=12;" vertex="1" parent="1">
          <mxGeometry x="330" y="1350" width="100" height="51" as="geometry" />
        </mxCell>
        <mxCell id="ALFkqxRXxDszs7MNfKY9-91" value="是" style="edgeStyle=orthogonalEdgeStyle;rounded=0;orthogonalLoop=1;jettySize=auto;html=1;fontSize=12;" edge="1" parent="1" source="ALFkqxRXxDszs7MNfKY9-88" target="ALFkqxRXxDszs7MNfKY9-90">
          <mxGeometry relative="1" as="geometry" />
        </mxCell>
        <mxCell id="ALFkqxRXxDszs7MNfKY9-94" value="否" style="edgeStyle=orthogonalEdgeStyle;rounded=0;orthogonalLoop=1;jettySize=auto;html=1;fontSize=12;" edge="1" parent="1" source="ALFkqxRXxDszs7MNfKY9-88" target="ALFkqxRXxDszs7MNfKY9-93">
          <mxGeometry relative="1" as="geometry" />
        </mxCell>
        <mxCell id="ALFkqxRXxDszs7MNfKY9-88" value="是否告警" style="rhombus;whiteSpace=wrap;html=1;rounded=0;" vertex="1" parent="1">
          <mxGeometry x="340" y="1440" width="80" height="80" as="geometry" />
        </mxCell>
        <mxCell id="ALFkqxRXxDszs7MNfKY9-90" value="向微信公众后台提交模板消息" style="whiteSpace=wrap;html=1;rounded=0;" vertex="1" parent="1">
          <mxGeometry x="490" y="1450" width="120" height="60" as="geometry" />
        </mxCell>
        <mxCell id="ALFkqxRXxDszs7MNfKY9-99" value="" style="edgeStyle=orthogonalEdgeStyle;rounded=0;orthogonalLoop=1;jettySize=auto;html=1;fontSize=12;" edge="1" parent="1" source="ALFkqxRXxDszs7MNfKY9-93" target="ALFkqxRXxDszs7MNfKY9-98">
          <mxGeometry relative="1" as="geometry" />
        </mxCell>
        <mxCell id="ALFkqxRXxDszs7MNfKY9-93" value="将数据存储在数据库" style="whiteSpace=wrap;html=1;rounded=0;" vertex="1" parent="1">
          <mxGeometry x="340" y="1580" width="85" height="50" as="geometry" />
        </mxCell>
        <mxCell id="ALFkqxRXxDszs7MNfKY9-97" value="开始" style="strokeWidth=2;html=1;shape=mxgraph.flowchart.start_2;whiteSpace=wrap;fontSize=12;" vertex="1" parent="1">
          <mxGeometry x="345" y="1150" width="70" height="70" as="geometry" />
        </mxCell>
        <mxCell id="ALFkqxRXxDszs7MNfKY9-98" value="结束" style="whiteSpace=wrap;html=1;rounded=0;" vertex="1" parent="1">
          <mxGeometry x="337" y="1662" width="90" height="39" as="geometry" />
        </mxCell>
        <mxCell id="ALFkqxRXxDszs7MNfKY9-100" value="&lt;h1&gt;微信公众号与后台系统对接设计&lt;/h1&gt;&lt;p&gt;用户公司系统中注册个人信息。关注公司微信公众号，用户在微信公众号的功能中选择账号绑定，公司系统收到用户openId与用户账户绑定，公司系统即可通过微信平台给改openId的用户推送消息&lt;/p&gt;" style="text;html=1;strokeColor=none;fillColor=none;spacing=5;spacingTop=-20;whiteSpace=wrap;overflow=hidden;rounded=0;fontSize=16;" vertex="1" parent="1">
          <mxGeometry x="30" y="1760" width="730" height="120" as="geometry" />
        </mxCell>
        <mxCell id="ALFkqxRXxDszs7MNfKY9-107" value="注册(手机号)" style="edgeStyle=orthogonalEdgeStyle;rounded=0;orthogonalLoop=1;jettySize=auto;html=1;entryX=0;entryY=0.015;entryDx=0;entryDy=0;entryPerimeter=0;fontSize=12;" edge="1" parent="1" target="ALFkqxRXxDszs7MNfKY9-106">
          <mxGeometry relative="1" as="geometry">
            <mxPoint x="195" y="2007" as="sourcePoint" />
            <Array as="points">
              <mxPoint x="310" y="2007" />
            </Array>
          </mxGeometry>
        </mxCell>
        <mxCell id="ALFkqxRXxDszs7MNfKY9-102" value="公司系统" style="shape=umlLifeline;perimeter=lifelinePerimeter;whiteSpace=wrap;html=1;container=1;collapsible=0;recursiveResize=0;outlineConnect=0;fontSize=12;" vertex="1" parent="1">
          <mxGeometry x="265" y="1878" width="100" height="532" as="geometry" />
        </mxCell>
        <mxCell id="ALFkqxRXxDszs7MNfKY9-106" value="" style="html=1;points=[];perimeter=orthogonalPerimeter;fontSize=12;" vertex="1" parent="ALFkqxRXxDszs7MNfKY9-102">
          <mxGeometry x="45" y="128" width="10" height="42" as="geometry" />
        </mxCell>
        <mxCell id="ALFkqxRXxDszs7MNfKY9-116" value="" style="html=1;points=[];perimeter=orthogonalPerimeter;fontSize=12;" vertex="1" parent="ALFkqxRXxDszs7MNfKY9-102">
          <mxGeometry x="45" y="300" width="10" height="40" as="geometry" />
        </mxCell>
        <mxCell id="ALFkqxRXxDszs7MNfKY9-118" value="" style="html=1;points=[];perimeter=orthogonalPerimeter;fontSize=12;" vertex="1" parent="ALFkqxRXxDszs7MNfKY9-102">
          <mxGeometry x="45" y="362" width="10" height="40" as="geometry" />
        </mxCell>
        <mxCell id="ALFkqxRXxDszs7MNfKY9-103" value="微信端" style="shape=umlLifeline;perimeter=lifelinePerimeter;whiteSpace=wrap;html=1;container=1;collapsible=0;recursiveResize=0;outlineConnect=0;fontSize=12;" vertex="1" parent="1">
          <mxGeometry x="435" y="1878" width="100" height="532" as="geometry" />
        </mxCell>
        <mxCell id="ALFkqxRXxDszs7MNfKY9-112" value="" style="html=1;points=[];perimeter=orthogonalPerimeter;fontSize=12;" vertex="1" parent="ALFkqxRXxDszs7MNfKY9-103">
          <mxGeometry x="45" y="220" width="10" height="40" as="geometry" />
        </mxCell>
        <mxCell id="ALFkqxRXxDszs7MNfKY9-119" value="" style="html=1;points=[];perimeter=orthogonalPerimeter;fontSize=12;" vertex="1" parent="ALFkqxRXxDszs7MNfKY9-103">
          <mxGeometry x="45" y="402" width="10" height="40" as="geometry" />
        </mxCell>
        <mxCell id="ALFkqxRXxDszs7MNfKY9-108" value="" style="shape=umlLifeline;participant=umlActor;perimeter=lifelinePerimeter;whiteSpace=wrap;html=1;container=1;collapsible=0;recursiveResize=0;verticalAlign=top;spacingTop=36;outlineConnect=0;fontSize=12;" vertex="1" parent="1">
          <mxGeometry x="180" y="1878" width="20" height="532" as="geometry" />
        </mxCell>
        <mxCell id="ALFkqxRXxDszs7MNfKY9-109" value="" style="html=1;points=[];perimeter=orthogonalPerimeter;fontSize=12;" vertex="1" parent="ALFkqxRXxDszs7MNfKY9-108">
          <mxGeometry x="5" y="90" width="10" height="40" as="geometry" />
        </mxCell>
        <mxCell id="ALFkqxRXxDszs7MNfKY9-110" value="" style="html=1;points=[];perimeter=orthogonalPerimeter;fontSize=12;" vertex="1" parent="ALFkqxRXxDszs7MNfKY9-108">
          <mxGeometry x="5" y="181" width="10" height="40" as="geometry" />
        </mxCell>
        <mxCell id="ALFkqxRXxDszs7MNfKY9-113" value="关注公众号" style="edgeStyle=orthogonalEdgeStyle;rounded=0;orthogonalLoop=1;jettySize=auto;html=1;entryX=0.333;entryY=0.018;entryDx=0;entryDy=0;entryPerimeter=0;fontSize=12;" edge="1" parent="1" source="ALFkqxRXxDszs7MNfKY9-110" target="ALFkqxRXxDszs7MNfKY9-112">
          <mxGeometry relative="1" as="geometry">
            <Array as="points">
              <mxPoint x="190" y="2099" />
              <mxPoint x="475" y="2099" />
            </Array>
          </mxGeometry>
        </mxCell>
        <mxCell id="ALFkqxRXxDszs7MNfKY9-117" value="openId账号绑定" style="edgeStyle=orthogonalEdgeStyle;rounded=0;orthogonalLoop=1;jettySize=auto;html=1;entryX=0;entryY=-0.007;entryDx=0;entryDy=0;entryPerimeter=0;fontSize=12;" edge="1" parent="1" source="ALFkqxRXxDszs7MNfKY9-114" target="ALFkqxRXxDszs7MNfKY9-116">
          <mxGeometry relative="1" as="geometry">
            <Array as="points">
              <mxPoint x="245" y="2178" />
              <mxPoint x="245" y="2178" />
            </Array>
          </mxGeometry>
        </mxCell>
        <mxCell id="ALFkqxRXxDszs7MNfKY9-114" value="" style="html=1;points=[];perimeter=orthogonalPerimeter;fontSize=12;" vertex="1" parent="1">
          <mxGeometry x="185" y="2138" width="10" height="40" as="geometry" />
        </mxCell>
        <mxCell id="ALFkqxRXxDszs7MNfKY9-115" value="推送绑定账号消息" style="edgeStyle=orthogonalEdgeStyle;rounded=0;orthogonalLoop=1;jettySize=auto;html=1;entryX=0.9;entryY=0.007;entryDx=0;entryDy=0;entryPerimeter=0;fontSize=12;" edge="1" parent="1" source="ALFkqxRXxDszs7MNfKY9-112" target="ALFkqxRXxDszs7MNfKY9-114">
          <mxGeometry relative="1" as="geometry">
            <Array as="points">
              <mxPoint x="355" y="2138" />
              <mxPoint x="355" y="2138" />
            </Array>
          </mxGeometry>
        </mxCell>
        <mxCell id="ALFkqxRXxDszs7MNfKY9-120" value="为指定openId推送消息" style="edgeStyle=orthogonalEdgeStyle;rounded=0;orthogonalLoop=1;jettySize=auto;html=1;entryX=0.383;entryY=-0.028;entryDx=0;entryDy=0;entryPerimeter=0;fontSize=12;" edge="1" parent="1" source="ALFkqxRXxDszs7MNfKY9-118" target="ALFkqxRXxDszs7MNfKY9-119">
          <mxGeometry relative="1" as="geometry">
            <Array as="points">
              <mxPoint x="370" y="2279" />
              <mxPoint x="370" y="2279" />
            </Array>
          </mxGeometry>
        </mxCell>
        <mxCell id="ALFkqxRXxDszs7MNfKY9-121" value="" style="html=1;points=[];perimeter=orthogonalPerimeter;fontSize=12;" vertex="1" parent="1">
          <mxGeometry x="185" y="2320" width="10" height="40" as="geometry" />
        </mxCell>
        <mxCell id="ALFkqxRXxDszs7MNfKY9-122" value="将消息推送至用户微信" style="edgeStyle=orthogonalEdgeStyle;rounded=0;orthogonalLoop=1;jettySize=auto;html=1;entryX=1.25;entryY=0.008;entryDx=0;entryDy=0;entryPerimeter=0;fontSize=12;" edge="1" parent="1" source="ALFkqxRXxDszs7MNfKY9-119" target="ALFkqxRXxDszs7MNfKY9-121">
          <mxGeometry relative="1" as="geometry">
            <Array as="points">
              <mxPoint x="485" y="2320" />
            </Array>
          </mxGeometry>
        </mxCell>
        <mxCell id="ALFkqxRXxDszs7MNfKY9-123" value="&lt;h1&gt;数据报表&lt;/h1&gt;&lt;p&gt;根据要求，从数据库中查询并生成统计结果数据，发送至前端使用ECharts展示，示例：&lt;/p&gt;" style="text;html=1;strokeColor=none;fillColor=none;spacing=5;spacingTop=-20;whiteSpace=wrap;overflow=hidden;rounded=0;fontSize=16;" vertex="1" parent="1">
          <mxGeometry x="30" y="2460" width="730" height="120" as="geometry" />
        </mxCell>
        <mxCell id="ALFkqxRXxDszs7MNfKY9-126" value="" style="shape=image;imageAspect=0;aspect=fixed;verticalLabelPosition=bottom;verticalAlign=top;fontSize=12;image=https://cdn.jsdelivr.net/gh/apache/echarts-website@asf-site/examples/data/thumb/scatter-weight.webp?_v_=1612615474746;" vertex="1" parent="1">
          <mxGeometry x="30" y="2560" width="240" height="180" as="geometry" />
        </mxCell>
        <mxCell id="ALFkqxRXxDszs7MNfKY9-127" value="" style="shape=image;imageAspect=0;aspect=fixed;verticalLabelPosition=bottom;verticalAlign=top;fontSize=12;image=https://cdn.jsdelivr.net/gh/apache/echarts-website@asf-site/examples/data/thumb/scatter-nutrients-matrix.webp?_v_=1612615474746;" vertex="1" parent="1">
          <mxGeometry x="290" y="2560" width="240" height="180" as="geometry" />
        </mxCell>
        <mxCell id="ALFkqxRXxDszs7MNfKY9-128" value="" style="shape=image;imageAspect=0;aspect=fixed;verticalLabelPosition=bottom;verticalAlign=top;fontSize=12;image=https://cdn.jsdelivr.net/gh/apache/echarts-website@asf-site/examples/data/thumb/parallel-aqi.webp?_v_=1612615474746;" vertex="1" parent="1">
          <mxGeometry x="550" y="2560" width="240" height="180" as="geometry" />
        </mxCell>
      </root>
    </mxGraphModel>
  </diagram>
</mxfile>
